<mxfile host="app.diagrams.net" modified="2023-12-10T21:59:53.642Z" agent="Mozilla/5.0 (Windows NT 10.0; Win64; x64) AppleWebKit/537.36 (KHTML, like Gecko) Chrome/118.0.0.0 Safari/537.36 OPR/104.0.0.0" etag="9KBjfioy4z_2ugSLNmpb" version="22.1.7" type="device">
  <diagram name="Page-1" id="lmSnsA7j9K4DHQmrXDBk">
    <mxGraphModel dx="1521" dy="838" grid="1" gridSize="10" guides="1" tooltips="1" connect="1" arrows="1" fold="1" page="1" pageScale="1" pageWidth="1169" pageHeight="827" math="0" shadow="0">
      <root>
        <mxCell id="0" />
        <mxCell id="1" parent="0" />
        <mxCell id="n2pXJ6ixB6sQgGCV6tNB-1" value="&lt;font style=&quot;font-size: 12px;&quot;&gt;&lt;b&gt;&amp;lt;&amp;lt;device&amp;gt;&amp;gt;&lt;br style=&quot;border-color: var(--border-color); text-align: center;&quot;&gt;&lt;span style=&quot;text-align: center;&quot;&gt;Database Server&lt;/span&gt;&lt;/b&gt;&lt;/font&gt;" style="verticalAlign=top;align=left;spacingTop=8;spacingLeft=2;spacingRight=12;shape=cube;size=10;direction=south;fontStyle=4;html=1;whiteSpace=wrap;fillColor=#f5f5f5;fontColor=#333333;strokeColor=#666666;" vertex="1" parent="1">
          <mxGeometry x="500" y="90" width="400" height="270" as="geometry" />
        </mxCell>
        <mxCell id="n2pXJ6ixB6sQgGCV6tNB-4" value="&lt;b&gt;&amp;lt;&amp;lt;database system&amp;gt;&amp;gt;&lt;br&gt;MySQL&lt;/b&gt;" style="verticalAlign=top;align=left;spacingTop=8;spacingLeft=2;spacingRight=12;shape=cube;size=10;direction=south;fontStyle=4;html=1;whiteSpace=wrap;fillColor=#fff2cc;strokeColor=#d6b656;" vertex="1" parent="1">
          <mxGeometry x="565" y="149.5" width="270" height="180.5" as="geometry" />
        </mxCell>
        <mxCell id="n2pXJ6ixB6sQgGCV6tNB-5" value="&lt;b&gt;&amp;lt;&amp;lt;device&amp;gt;&amp;gt;&lt;br&gt;Embedded Tomcat Server&lt;/b&gt;" style="verticalAlign=top;align=left;spacingTop=8;spacingLeft=2;spacingRight=12;shape=cube;size=10;direction=south;fontStyle=4;html=1;whiteSpace=wrap;fillColor=#f5f5f5;fontColor=#333333;strokeColor=#666666;" vertex="1" parent="1">
          <mxGeometry x="140" y="330" width="220" height="270" as="geometry" />
        </mxCell>
        <mxCell id="n2pXJ6ixB6sQgGCV6tNB-6" value="&lt;b&gt;&amp;lt;&amp;lt;artifact&amp;gt;&amp;gt;&lt;br&gt;TicketShopApplication.jar&lt;/b&gt;" style="verticalAlign=top;align=left;spacingTop=8;spacingLeft=2;spacingRight=12;shape=cube;size=10;direction=south;fontStyle=4;html=1;whiteSpace=wrap;fillColor=#fff2cc;strokeColor=#d6b656;" vertex="1" parent="1">
          <mxGeometry x="160" y="440" width="180" height="80" as="geometry" />
        </mxCell>
        <mxCell id="n2pXJ6ixB6sQgGCV6tNB-7" value="&lt;b&gt;&amp;lt;&amp;lt;device&amp;gt;&amp;gt;&lt;br&gt;User&#39;s PC&lt;/b&gt;" style="verticalAlign=top;align=left;spacingTop=8;spacingLeft=2;spacingRight=12;shape=cube;size=10;direction=south;fontStyle=4;html=1;whiteSpace=wrap;fillColor=#f5f5f5;fontColor=#333333;strokeColor=#666666;" vertex="1" parent="1">
          <mxGeometry x="595" y="470" width="210" height="280" as="geometry" />
        </mxCell>
        <mxCell id="n2pXJ6ixB6sQgGCV6tNB-8" value="&lt;b&gt;&amp;lt;&amp;lt;device&amp;gt;&amp;gt;&lt;br&gt;Web Browser&lt;/b&gt;" style="verticalAlign=top;align=left;spacingTop=8;spacingLeft=2;spacingRight=12;shape=cube;size=10;direction=south;fontStyle=4;html=1;whiteSpace=wrap;fillColor=#ffe6cc;strokeColor=#d79b00;" vertex="1" parent="1">
          <mxGeometry x="642.5" y="530" width="115" height="190" as="geometry" />
        </mxCell>
        <mxCell id="n2pXJ6ixB6sQgGCV6tNB-10" value="&lt;b&gt;&amp;lt;&amp;lt;artifact&amp;gt;&amp;gt;&lt;br&gt;TicketShopApplicationSchema&lt;/b&gt;" style="verticalAlign=top;align=left;spacingTop=8;spacingLeft=2;spacingRight=12;shape=cube;size=10;direction=south;fontStyle=4;html=1;whiteSpace=wrap;fillColor=#ffe6cc;strokeColor=#d79b00;" vertex="1" parent="1">
          <mxGeometry x="597.5" y="220" width="205" height="80" as="geometry" />
        </mxCell>
        <mxCell id="n2pXJ6ixB6sQgGCV6tNB-12" value="&lt;font style=&quot;font-size: 14px;&quot;&gt;port: 3306&lt;/font&gt;" style="endArrow=open;endSize=12;dashed=1;html=1;rounded=0;" edge="1" parent="1" source="n2pXJ6ixB6sQgGCV6tNB-5" target="n2pXJ6ixB6sQgGCV6tNB-1">
          <mxGeometry width="160" relative="1" as="geometry">
            <mxPoint x="500" y="430" as="sourcePoint" />
            <mxPoint x="660" y="430" as="targetPoint" />
          </mxGeometry>
        </mxCell>
        <mxCell id="n2pXJ6ixB6sQgGCV6tNB-14" value="&lt;font style=&quot;font-size: 14px;&quot;&gt;port: 8080&lt;/font&gt;" style="endArrow=open;endSize=12;dashed=1;html=1;rounded=0;" edge="1" parent="1" source="n2pXJ6ixB6sQgGCV6tNB-5" target="n2pXJ6ixB6sQgGCV6tNB-7">
          <mxGeometry width="160" relative="1" as="geometry">
            <mxPoint x="370" y="416" as="sourcePoint" />
            <mxPoint x="510" y="342" as="targetPoint" />
          </mxGeometry>
        </mxCell>
      </root>
    </mxGraphModel>
  </diagram>
</mxfile>
